<svg width="158" height="146" viewBox="0 0 158 146" fill="none" xmlns="http://www.w3.org/2000/svg">
<path d="M53.1309 15.4778C68.7149 15.4778 81.392 28.1549 81.392 43.7389C81.392 59.4036 68.7149 72 53.1309 72H30.522C14.8573 72 2.26089 59.4036 2.26089 43.7389C2.26089 28.1549 14.8573 15.4778 30.522 15.4778L53.1309 15.4778ZM51.193 56.9812C58.4601 56.9812 64.4354 51.0868 64.4354 43.7389C64.4354 36.4717 58.4601 30.5773 51.193 30.5773L32.3792 30.5773C25.112 30.5773 19.2176 36.4717 19.2176 43.7389C19.2176 51.0868 25.112 56.9812 32.3792 56.9812H51.193Z" fill="#FFC164"/>
<path d="M134.441 70.2413H155.954L143.554 136H102.595L91.3224 76.0656L79.9555 136H39.0912L26.6909 70.2413H48.2034L59.5703 130.27L70.8432 70.2413L111.801 70.2413L123.074 130.27L134.441 70.2413Z" fill="white"/>
</svg>
